<?xml version="1.0" encoding="UTF-8"?>
<svg width="29px" height="31px" viewBox="0 0 29 31" version="1.1" xmlns="http://www.w3.org/2000/svg" xmlns:xlink="http://www.w3.org/1999/xlink">
    <!-- Generator: Sketch 56.2 (81672) - https://sketch.com -->
    <title>Fill 1</title>
    <desc>Created with Sketch.</desc>
    <g id="A---Homepage" stroke="none" stroke-width="1" fill="none" fill-rule="evenodd">
        <g id="A.1.9---Homepage-scroll" transform="translate(-669.000000, -645.000000)" fill="#000000">
            <g id="contact" transform="translate(647.000000, 645.000000)">
                <path d="M38.131409,5.07054343 L32.5116123,5.07054343 L28.8574227,0.338846184 L25.4043343,0.338846184 L25.3825916,0.354809192 L29.0223109,5.06880003 L22,5.07057067 L32.9896081,19.3028913 L32.9896081,28.0335129 L26.6922079,28.0335129 L26.6922079,30.7575758 L42.0697747,30.7575758 L42.0697747,28.0335129 L35.7723745,28.0335129 L35.7723745,19.3028913 L41.437623,11.9660819 C42.3507414,12.448468 43.388806,12.7304539 44.4975992,12.7304539 C48.0829618,12.7304539 51,9.87513661 51,6.36522697 C51.0018101,2.85549893 48.0849561,0 44.4975992,0 C41.3654937,0 38.7459366,2.17976789 38.131409,5.07054343 Z M31.1257947,7.79460633 L34.6332398,12.3365272 L36.3778952,10.0770986 L34.6151054,7.79460633 L41.1717668,7.79460633 L34.3813531,16.5856567 L27.5927945,7.79460633 L31.1257947,7.79460633 Z M43.0449396,9.881974 L46.7607211,5.06855487 L40.8580099,5.07032551 C41.4015305,3.61431389 42.8255184,2.56795593 44.4995379,2.56795593 C46.6373518,2.56795593 48.3783895,4.27049524 48.3783895,6.3649818 C48.3765761,8.45769772 46.6373518,10.1602373 44.4977291,10.1602373 C43.9833811,10.1604096 43.4942172,10.0610948 43.0449396,9.881974 Z" id="Fill-1"></path>
            </g>
        </g>
    </g>
</svg>