<?xml version="1.0" encoding="utf-8"?>
<!-- Generator: Adobe Illustrator 22.0.1, SVG Export Plug-In . SVG Version: 6.00 Build 0)  -->
<svg version="1.1" id="Calque_1" xmlns="http://www.w3.org/2000/svg" xmlns:xlink="http://www.w3.org/1999/xlink" x="0px" y="0px"
	 viewBox="0 0 26.7 35" style="enable-background:new 0 0 26.7 35;" xml:space="preserve">
<style type="text/css">
	.st0{fill:#FFE33D;}
	.st1{fill:#FDBE28;}
	.st2{fill:#FFF297;}
	.st3{fill:#FF8832;}
	.st4{fill:#FFF388;}
	.st5{clip-path:url(#SVGID_2_);}
	.st6{clip-path:url(#SVGID_4_);}
	.st7{clip-path:url(#SVGID_6_);enable-background:new    ;}
	.st8{clip-path:url(#SVGID_8_);}
	.st9{clip-path:url(#SVGID_10_);}
</style>
<path class="st0" d="M5.7,14.9l0.7,6.5c0.1,0.7,0.7,1.3,1.4,1.4l3.5,0.5l-3.6,0.5c-0.7,0.1-1.3,0.7-1.4,1.4l-0.9,6.5l-0.8-6.4
	c-0.1-0.7-0.7-1.3-1.4-1.4L0,23.4l3.4-0.5c0.7-0.1,1.3-0.6,1.4-1.4L5.7,14.9z"/>
<path class="st1" d="M15,0l1.6,13.5c0.2,1.5,1.4,2.7,2.9,3l7.3,1.1l-7.4,1.1c-1.5,0.2-2.7,1.4-2.9,2.9L14.6,35L13,21.6
	c-0.2-1.5-1.4-2.6-2.9-2.9L3,17.6l7.1-1.1c1.5-0.2,2.6-1.4,2.9-2.8L15,0z"/>
</svg>
