<?xml version="1.0" encoding="utf-8"?>
<!-- Generator: Adobe Illustrator 22.0.1, SVG Export Plug-In . SVG Version: 6.00 Build 0)  -->
<svg version="1.1" id="Calque_1" xmlns="http://www.w3.org/2000/svg" xmlns:xlink="http://www.w3.org/1999/xlink" x="0px" y="0px"
	 viewBox="0 0 39 50" style="enable-background:new 0 0 39 50;" xml:space="preserve">
<style type="text/css">
	.st0{fill:#FFE33D;}
	.st1{fill:#FDBE28;}
	.st2{fill:#FFF297;}
	.st3{fill:#FF8832;}
	.st4{fill:#FFF388;}
	.st5{clip-path:url(#SVGID_2_);}
	.st6{clip-path:url(#SVGID_4_);}
	.st7{clip-path:url(#SVGID_6_);enable-background:new    ;}
	.st8{clip-path:url(#SVGID_8_);}
	.st9{clip-path:url(#SVGID_10_);}
</style>
<path class="st3" d="M21.7,17.6L19.9,0l-2.2,17.8c-0.2,1.1-0.9,1.8-1.9,1.2l-4.6-2.5l2.7,4.5c0.6,1,0,1.9-1.2,2l-12.8,1.8L12.4,27
	c1.1,0.2,1.8,0.9,1.2,1.9l-2.5,4.6l4.5-2.4c1-0.6,1.8,0.1,1.9,1.3L19.4,50l2.2-17.9c0.2-1.1,0.8-1.7,1.8-1.3l4.7,2.2l-2.4-4.5
	c-0.6-1,0.1-1.8,1.3-1.9l12.5-1.8l-12.8-2.2c-1.2-0.2-1.8-1.1-1.1-2.1l3.1-4.5l-5,2.9C22.6,19.4,21.8,18.8,21.7,17.6z"/>
</svg>
