<?xml version="1.0" encoding="UTF-8"?>
<svg width="170px" height="39px" viewBox="0 0 170 39" version="1.1" xmlns="http://www.w3.org/2000/svg" xmlns:xlink="http://www.w3.org/1999/xlink">
    <!-- Generator: Sketch 56.2 (81672) - https://sketch.com -->
    <title>Fill 22</title>
    <desc>Created with Sketch.</desc>
    <g id="A---Homepage" stroke="none" stroke-width="1" fill="none" fill-rule="evenodd">
        <g id="B.1.0---Project-Page" transform="translate(-464.000000, -1069.000000)" fill="#B4B3B1">
            <g id="logos" transform="translate(171.000000, 1023.000000)">
                <path d="M314.776911,78.9830741 C315.114743,78.7434999 315.584852,78.8243087 315.824665,79.1618041 C316.064478,79.5002502 315.984541,79.9689411 315.644806,80.2085153 L310.321338,83.6614265 C310.190011,83.7545943 310.038701,83.7992768 309.88739,83.7992768 C309.652335,83.7992768 309.420136,83.6889966 309.274535,83.4817458 C309.034722,83.1432997 309.11466,82.6755595 309.453443,82.4359853 L314.776911,78.9830741 Z M369.409739,56.7894685 C369.46208,59.4057713 372.106684,61.2101836 377.343553,62.2046068 L377.422539,62.2046068 C380.432573,62.7531557 382.763137,63.5907148 384.412327,64.7153828 C386.42885,66.0235341 387.436635,67.7556939 387.436635,69.9137634 C387.436635,72.0718328 386.422188,73.8838506 384.393294,75.3479154 C382.363448,76.8138815 379.987206,77.5459139 377.265519,77.5459139 C373.808214,77.5192946 370.430848,76.1987842 367.131516,73.5824815 C366.712795,73.217416 366.672826,72.8114707 367.013513,72.3665472 C367.170533,72.1840144 367.367522,72.0794384 367.603529,72.052819 C367.838584,72.0271503 368.047944,72.0917974 368.23161,72.2486614 C371.189304,74.6291927 374.201241,75.8061487 377.265519,75.78048 C379.673165,75.78048 381.688736,75.1786923 383.313184,73.975117 C384.88434,72.8513998 385.669442,71.4909604 385.669442,69.8947495 C385.669442,66.9656693 382.802154,64.9644639 377.068529,63.8911333 L376.989543,63.8911333 C370.783906,62.7407967 367.681563,60.3745258 367.681563,56.7894685 C367.681563,54.7492848 368.617024,53.0484979 370.48985,51.6890092 C372.361723,50.3295205 374.593316,49.6478747 377.186533,49.6478747 C378.31137,49.6478747 379.444772,49.8389637 380.583883,50.2173389 C381.722044,50.5966648 382.606116,50.9636316 383.234198,51.3163381 C383.863231,51.6690447 384.674027,52.1729111 385.669442,52.8269868 C386.141455,53.1407149 386.219489,53.5466602 385.905448,54.0429211 C385.61615,54.5135133 385.223123,54.59147 384.727319,54.2786926 C383.784245,53.6769049 383.018176,53.205362 382.430063,52.8659651 C381.840998,52.5265683 381.053993,52.1928756 380.072853,51.8658378 C379.090762,51.5387999 378.128655,51.375281 377.186533,51.375281 C374.986343,51.375281 373.11447,51.92383 371.56996,53.0228292 C370.129178,54.0961598 369.409739,55.3520231 369.409739,56.7894685 Z M392.11061,76.5648004 L392.11061,59.2222878 C392.11061,58.9608477 392.202919,58.7393366 392.385633,58.5549025 C392.568348,58.3733204 392.797693,58.2811034 393.073668,58.2811034 C393.34774,58.2811034 393.576134,58.3733204 393.7598,58.5549025 C393.942515,58.7393366 394.033872,58.9608477 394.033872,59.2222878 L394.033872,76.5648004 C394.033872,76.8262405 393.936805,77.049653 393.740767,77.2312351 C393.543778,77.4156692 393.315385,77.5059849 393.052732,77.5059849 C392.791031,77.5059849 392.568348,77.4156692 392.385633,77.2312351 C392.202919,77.049653 392.11061,76.8262405 392.11061,76.5648004 Z M392.11061,53.8470787 L392.11061,52.9448725 C392.11061,52.6824817 392.202919,52.4609706 392.385633,52.2774872 C392.568348,52.0949544 392.791031,52.0027373 393.052732,52.0027373 C393.315385,52.0027373 393.543778,52.0949544 393.740767,52.2774872 C393.936805,52.4609706 394.033872,52.6824817 394.033872,52.9448725 L394.033872,53.8470787 C394.033872,54.1351382 393.936805,54.3766138 393.740767,54.5724562 C393.543778,54.7692493 393.315385,54.8671705 393.052732,54.8671705 C392.791031,54.8671705 392.568348,54.7692493 392.385633,54.5724562 C392.202919,54.3766138 392.11061,54.1351382 392.11061,53.8470787 Z M401.732916,67.834316 C401.732916,69.9667169 402.432371,71.7844388 403.833183,73.2884326 C405.234947,74.7924264 406.923155,75.5444233 408.899709,75.5444233 C410.876263,75.5444233 412.566373,74.7924264 413.966234,73.2884326 C415.367047,71.7844388 416.067453,69.960062 416.067453,67.8153022 C416.067453,65.6705424 415.367047,63.8585246 413.966234,62.3811502 C412.566373,60.9037757 410.876263,60.1641378 408.899709,60.1641378 C406.923155,60.1641378 405.234947,60.9094799 403.833183,62.400164 C402.432371,63.8917988 401.732916,65.7028659 401.732916,67.834316 Z M417.95265,59.2229533 L417.95265,75.9769879 C417.95265,78.4601938 417.069529,80.5859398 415.301384,82.3523244 C413.53419,84.1177584 411.393954,85 408.880676,85 C407.596915,85 406.262717,84.6995815 404.874276,84.0977939 C404.349923,83.7317777 404.219549,83.3134735 404.482201,82.8428812 C404.768644,82.2401429 405.188317,82.0965885 405.738364,82.4112673 C406.732827,82.8828102 407.780581,83.1166803 408.880676,83.1166803 C410.870553,83.1166803 412.566373,82.4236263 413.966234,81.0375182 C415.367047,79.6514102 416.067453,77.9639329 416.067453,75.9769879 L416.067453,73.6221253 C415.255705,74.7990813 414.222225,75.7212519 412.96511,76.3886373 C411.707995,77.055072 410.3462,77.3887646 408.880676,77.3887646 C406.366446,77.3887646 404.232872,76.4532843 402.478049,74.5832743 C400.723227,72.7132643 399.847719,70.4639285 399.847719,67.834316 C399.847719,65.2056543 400.729889,62.9563185 402.498034,61.0853578 C404.266179,59.2162985 406.39214,58.2808182 408.880676,58.2808182 C410.319554,58.2808182 411.674688,58.6211657 412.945126,59.30091 C414.214612,59.9816051 415.255705,60.8961702 416.067453,62.0474575 L416.067453,59.2229533 C416.067453,58.9615132 416.165472,58.7390514 416.362461,58.5546173 C416.558499,58.3730352 416.781182,58.2808182 417.030512,58.2808182 C417.278889,58.2808182 417.49396,58.3730352 417.677626,58.5546173 C417.860341,58.7390514 417.95265,58.9615132 417.95265,59.2229533 Z M426.945733,76.7219497 C426.814406,77.24483 426.51464,77.5062701 426.043579,77.5062701 L425.808524,77.5062701 C425.519226,77.4283134 425.309865,77.2581396 425.179491,76.9966995 C425.152845,76.9710308 425.140474,76.9320525 425.140474,76.8788138 L425.100505,76.8008571 L425.100505,59.2615514 C425.100505,59.0001113 425.191862,58.7776495 425.375528,58.594166 C425.558243,58.4116333 425.780927,58.3203669 426.043579,58.3203669 C426.304328,58.3203669 426.52035,58.4116333 426.690693,58.594166 C426.861037,58.7776495 426.945733,59.0001113 426.945733,59.2615514 L426.945733,61.1058927 C428.491194,59.2482417 430.408747,58.3203669 432.700293,58.3203669 C434.990888,58.3203669 436.903682,59.0847228 438.433917,60.615336 C439.967008,62.1449984 440.731174,63.9836356 440.731174,66.1283954 L440.731174,76.5650856 C440.731174,76.8265257 440.639816,77.0489875 440.457102,77.2315203 C440.273435,77.4150037 440.050752,77.5062701 439.789051,77.5062701 C439.528302,77.5062701 439.304667,77.4150037 439.121952,77.2315203 C438.939238,77.0489875 438.846929,76.8265257 438.846929,76.5650856 L438.846929,66.1283954 C438.846929,64.5065159 438.270236,63.113753 437.118752,61.949156 C435.966318,60.7864604 434.572167,60.2036866 432.936299,60.2036866 C431.299481,60.2036866 429.90533,60.7788549 428.752895,61.9291915 C427.60046,63.0814295 426.999024,64.4798965 426.945733,66.1283954 L426.945733,76.7219497 Z M447.251708,76.5648004 L447.251708,59.2222878 C447.251708,58.9608477 447.344017,58.7393366 447.526732,58.5549025 C447.709447,58.3733204 447.938792,58.2811034 448.214767,58.2811034 C448.488839,58.2811034 448.717232,58.3733204 448.900899,58.5549025 C449.083613,58.7393366 449.174971,58.9608477 449.174971,59.2222878 L449.174971,76.5648004 C449.174971,76.8262405 449.077903,77.049653 448.881866,77.2312351 C448.684877,77.4156692 448.456483,77.5059849 448.193831,77.5059849 C447.93213,77.5059849 447.709447,77.4156692 447.526732,77.2312351 C447.344017,77.049653 447.251708,76.8262405 447.251708,76.5648004 Z M447.251708,53.8470787 L447.251708,52.9448725 C447.251708,52.6824817 447.344017,52.4609706 447.526732,52.2774872 C447.709447,52.0949544 447.93213,52.0027373 448.193831,52.0027373 C448.456483,52.0027373 448.684877,52.0949544 448.881866,52.2774872 C449.077903,52.4609706 449.174971,52.6824817 449.174971,52.9448725 L449.174971,53.8470787 C449.174971,54.1351382 449.077903,54.3766138 448.881866,54.5724562 C448.684877,54.7692493 448.456483,54.8671705 448.193831,54.8671705 C447.93213,54.8671705 447.709447,54.7692493 447.526732,54.5724562 C447.344017,54.3766138 447.251708,54.1351382 447.251708,53.8470787 Z M462.056926,58.2810083 C462.292932,58.2810083 462.508954,58.3789295 462.705944,58.5747719 C462.901981,58.7715651 463,58.987372 463,59.2221928 C463,59.4570136 462.901981,59.6737712 462.705944,59.8696136 C462.508954,60.0654561 462.292932,60.164328 462.056926,60.164328 L459.582665,60.164328 L459.582665,74.1708644 C459.582665,74.59107 459.746347,74.9304668 460.074662,75.1909563 C460.402026,75.4533471 460.695131,75.5835918 460.958735,75.5835918 C461.219484,75.5835918 461.454538,75.6881679 461.664851,75.8982707 C461.874211,76.1074228 461.978891,76.3289339 461.978891,76.5647053 C461.978891,76.8004768 461.874211,77.0162837 461.664851,77.2121262 C461.454538,77.4089193 461.232807,77.5068405 460.9968,77.5068405 C460.028032,77.5068405 459.221994,77.1921617 458.581541,76.5647053 C457.940136,75.937249 457.619434,75.1396189 457.619434,74.1708644 L457.619434,60.164328 L455.223207,60.164328 C454.804486,60.164328 454.542785,60.0854206 454.438105,59.9285565 C454.333424,59.7716924 454.281084,59.5625403 454.281084,59.3011002 C454.281084,59.03966 454.294407,58.8561766 454.320102,58.7516005 C454.399088,58.4369217 454.700757,58.2810083 455.223207,58.2810083 L457.619434,58.2810083 L457.619434,51.1394145 C457.619434,50.903643 457.717452,50.6887868 457.91349,50.4919936 C458.111431,50.2961512 458.333163,50.19823 458.581541,50.19823 C458.829918,50.19823 459.059263,50.2961512 459.268624,50.4919936 C459.477984,50.6887868 459.582665,50.903643 459.582665,51.1394145 L459.582665,58.2810083 L462.056926,58.2810083 Z M352.562685,47.3036599 C352.569347,47.2979557 352.576008,47.2998571 352.576008,47.2998571 C352.578863,47.3036599 352.577614,47.3112654 352.573153,47.3179203 L330.379031,79.43798 C330.133508,79.9047694 329.699561,80.2346593 329.179966,80.3487423 C329.051495,80.3763124 328.92112,80.3905727 328.792649,80.3905727 C328.379638,80.3905727 327.977094,80.2470183 327.650682,79.9760713 L318.581563,67.1464908 L306.609946,61.5412143 C306.08369,61.0848824 305.872426,60.3823215 306.062754,59.7101827 C306.247371,59.0504028 306.775531,58.5655502 307.445485,58.4362562 L351.617708,46.0021634 C351.617708,46.0021634 351.64816,45.9945578 351.652919,46.0078675 C351.655774,46.0164237 351.621515,46.0335362 351.621515,46.0335362 L330.972854,58.8707222 C330.150638,58.3516447 328.950621,58.2575262 327.800089,58.7157595 C326.094753,59.3955038 325.143114,61.0249889 325.674128,62.3569075 C326.206094,63.6888262 328.018966,64.2183613 329.724303,63.5395676 C331.32496,62.9016537 332.261373,61.4271313 331.930202,60.14655 L352.441827,47.3930249 C352.485603,47.3664055 352.523668,47.3331313 352.562685,47.3036599 Z M306.456542,72.2832666 C306.696355,72.620762 306.617369,73.0894529 306.278585,73.3299778 C305.464934,73.9089489 299.339234,77.9455846 297.868952,78.6224769 C296.871635,79.0816608 295.547905,79.1719765 294.658123,79.1719765 C294.106172,79.1719765 293.720758,79.1377516 293.680789,79.1339488 C293.26873,79.0949705 292.965157,78.7289543 293.003222,78.3173049 C293.04224,77.9037542 293.416234,77.5976315 293.821632,77.639462 C294.422116,77.6946021 296.206439,77.7345311 297.238967,77.2591854 C298.376176,76.7363051 303.225728,73.6570157 305.407836,72.106438 C305.745667,71.8659131 306.215777,71.9448205 306.456542,72.2832666 Z M307.527135,77.5387837 C307.860209,77.2935054 308.330319,77.3610044 308.577745,77.6937464 C308.825171,78.0264884 308.755701,78.49613 308.422628,78.7442604 L301.030297,83.9588028 C300.895164,84.0586254 300.739095,84.1071106 300.583026,84.1071106 C300.353681,84.1071106 300.127191,84.0025346 299.978736,83.8038401 C299.732261,83.4710981 299.801731,83.0014565 300.133853,82.7542768 L307.527135,77.5387837 Z" id="Fill-22"></path>
            </g>
        </g>
    </g>
</svg>