<?xml version="1.0" encoding="UTF-8"?>
<svg width="144px" height="131px" viewBox="0 0 144 131" version="1.1" xmlns="http://www.w3.org/2000/svg" xmlns:xlink="http://www.w3.org/1999/xlink">
    <!-- Generator: Sketch 56.2 (81672) - https://sketch.com -->
    <title>Fill 20</title>
    <desc>Created with Sketch.</desc>
    <g id="A---Homepage" stroke="none" stroke-width="1" fill="none" fill-rule="evenodd">
        <g id="B.1.0---Project-Page" transform="translate(-749.000000, -1023.000000)" fill="#B4B3B1">
            <g id="logos" transform="translate(171.000000, 1023.000000)">
                <path d="M578,115.473604 L580.228,115.473604 L580.228,127.995808 L584.507846,127.995808 L584.507846,130.100593 L578,130.100593 L578,115.473604 Z M593.155884,115.473604 L601.191605,115.473604 L601.191605,117.579291 L595.383885,117.579291 L595.383885,121.285228 L601.016349,121.285228 L601.016349,123.390013 L595.383885,123.390013 L595.383885,127.995808 L601.191605,127.995808 L601.191605,130.100593 L593.155884,130.100593 L593.155884,115.473604 Z M609.097995,115.473604 L618.008199,115.473604 L618.008199,117.579291 L614.666648,117.579291 L614.666648,130.100593 L612.438647,130.100593 L612.438647,117.579291 L609.097995,117.579291 L609.097995,115.473604 Z M631.568623,121.39489 C634.254087,122.491508 634.996454,124.026773 634.996454,125.69291 C634.996454,128.47823 633.031787,130.386255 630.302284,130.386255 C628.620724,130.386255 627.615922,129.749946 626.873555,128.916877 C626.087149,128.039583 625.737535,127.074739 625.650356,126.066573 L627.855888,125.5837 C627.855888,126.306655 628.118323,126.98719 628.467936,127.447499 C628.883159,127.973695 629.49341,128.324794 630.367893,128.324794 C631.72141,128.324794 632.769352,127.337386 632.769352,125.868911 C632.769352,124.377871 631.634231,123.763224 630.673468,123.368802 L629.275912,122.776719 C628.074284,122.272184 626.306444,121.263115 626.306444,119.070782 C626.306444,117.096869 627.835217,115.210506 630.564719,115.210506 C632.135734,115.210506 633.031787,115.802589 633.491048,116.197011 C633.883802,116.548109 634.298125,117.052644 634.6037,117.667291 L632.813391,118.719684 C632.681275,118.390247 632.486246,118.083374 632.158202,117.798163 C631.69984,117.425404 631.219009,117.271967 630.585391,117.271967 C629.231874,117.271967 628.533545,118.083374 628.533545,119.026556 C628.533545,119.465203 628.686333,120.232385 630.105458,120.802806 L631.568623,121.39489 Z M644.343899,130.101134 L644.343899,115.474146 L646.571899,115.474146 L646.571899,130.101134 L644.343899,130.101134 Z M664.150903,124.552699 L664.150903,122.491237 L670.157246,122.491237 L670.157246,122.600448 C670.157246,125.100556 669.413082,127.140356 667.993956,128.522185 C666.48855,129.991563 664.696444,130.385984 663.037352,130.385984 C660.918999,130.385984 659.412695,129.772239 658.079849,128.39041 C656.660723,126.921032 655.918356,124.969684 655.918356,122.863997 C655.918356,120.583212 656.835081,118.610202 658.03581,117.403471 C659.281477,116.131755 661.268613,115.210235 663.518183,115.210235 C664.827661,115.210235 666.181178,115.495446 667.317197,116.131755 C668.517927,116.811388 669.261193,117.667021 669.675516,118.324991 L667.906777,119.574143 C667.469985,118.960398 666.814796,118.302427 666.116468,117.908006 C665.308492,117.426035 664.434009,117.271697 663.538854,117.271697 C661.639796,117.271697 660.416598,118.061442 659.695801,118.7853 C658.735037,119.750143 658.145458,121.30707 658.145458,122.885659 C658.145458,124.355036 658.691897,125.824414 659.652661,126.855145 C660.656564,127.930101 661.901332,128.324523 663.298888,128.324523 C664.566125,128.324523 665.614067,127.951763 666.55326,127.031145 C667.360337,126.2414 667.68928,125.385767 667.77556,124.552699 L664.150903,124.552699 Z M690.072459,125.605362 L690.072459,115.474055 L692.299561,115.474055 L692.299561,131 L681.730265,119.882189 L681.730265,130.101044 L679.502265,130.101044 L679.502265,114.486648 L690.072459,125.605362 Z M702.345604,130.101134 L702.345604,115.474146 L704.573604,115.474146 L704.573604,130.101134 L702.345604,130.101134 Z M713.089796,115.473965 L722,115.473965 L722,117.57875 L718.658449,117.57875 L718.658449,130.100954 L716.431347,130.100954 L716.431347,117.57875 L713.089796,117.57875 L713.089796,115.473965 Z M673.39652,31.408403 C673.953744,30.3812826 674.822835,30.0671895 675.779105,30.5446471 C676.711108,30.9174069 677.050836,31.7405473 676.675158,32.7857191 C676.662576,32.8209191 676.645499,32.8552167 676.625727,32.8868065 L676.430698,33.1801405 C676.232075,33.6485724 675.9265,33.9644706 675.521164,34.1188094 C675.339616,34.1874044 675.150879,34.2217131 674.95585,34.2217131 C674.710492,34.2226045 674.453449,34.1684506 674.188318,34.0619477 C674.169444,34.0547272 674.152368,34.0466041 674.136191,34.0366759 C673.282378,33.5637312 672.966917,32.7803037 673.250023,31.830804 L673.363266,31.4851211 C673.372253,31.4589467 673.383038,31.4327722 673.39652,31.408403 Z M657.821998,57.7341846 C657.979279,55.7846415 657.591019,53.7412315 656.668902,51.6526932 L655.487046,52.8422755 C654.946898,53.3874255 654.433712,53.9343807 653.962767,54.4686999 C652.121229,56.5635562 650.709293,58.6060636 649.766505,60.5384579 C648.869553,62.3760828 648.718563,63.9158608 649.31713,65.1153714 C649.346789,65.1758433 649.362966,65.2417307 649.364764,65.3085206 C649.369258,65.3085206 649.382739,65.3310847 649.416891,65.3662848 C649.442056,65.3906541 649.462727,65.4177311 649.480702,65.4475158 C650.23745,66.6885444 651.137997,67.2174482 652.22099,67.0585965 C652.952572,66.8979397 653.646407,66.533303 654.253962,65.9800299 C655.001721,65.2832487 655.708139,64.3924158 656.350745,63.3355107 C657.149733,61.778584 657.650336,59.885 657.821998,57.7341846 Z M720.465745,21.923966 C720.090067,22.6351882 719.207495,22.9077632 718.496584,22.529588 C702.796327,14.1528706 683.802153,37.2278794 683.611618,37.4625466 L683.564883,37.5185057 C679.392887,42.1405475 676.065716,47.8240072 673.636396,51.9740068 C672.482401,53.946114 671.488384,55.6438412 670.699282,56.6863052 C670.053081,57.5527688 669.511135,58.0681341 668.942227,58.3551502 C668.299621,58.6791715 667.688471,58.7685255 667.127651,58.6186995 C666.543464,58.4625556 666.080608,58.0464725 665.747172,57.3830863 C665.437103,56.7585105 665.315772,55.9669599 665.379583,54.9615011 L665.378684,54.899224 C665.378684,54.8829778 665.379583,54.865829 665.381381,54.8486803 C665.503611,53.7385238 665.735488,52.5047157 666.068924,51.180651 C666.398765,49.8782479 666.782531,48.5614038 667.20764,47.2680263 C667.747788,45.5134376 668.330178,43.8563259 668.938632,42.3526505 C668.973683,42.2641991 669.009633,42.1775527 669.043785,42.093614 C668.757983,42.2542708 668.476674,42.4149276 668.198961,42.5773895 C666.657605,43.5323046 665.048843,44.6334355 663.4266,45.8428742 C661.899625,46.983718 660.410397,48.1904491 658.994866,49.4323802 C660.374447,52.2447767 660.983799,55.0111422 660.807644,57.6601742 C660.626995,60.3868268 660.002364,62.7831402 658.94903,64.7823244 C658.135661,66.1704713 657.253089,67.3113151 656.319288,68.1913172 C655.151813,69.1715041 653.948387,69.7590748 652.720695,69.9567368 C652.374676,70.0181113 652.03405,70.0497052 651.697918,70.0497052 C650.957348,70.0506037 650.241943,69.9043879 649.563387,69.6101513 C648.56937,69.1778221 647.672418,68.3050405 646.898595,67.0134682 L646.6074,66.4358258 C645.697865,64.483575 645.800323,62.2524312 646.908481,59.7929382 C647.979791,57.4173838 649.605629,54.9660139 651.741058,52.5074234 C652.286599,51.8368167 652.892356,51.1644049 653.532266,50.5199726 C654.077807,49.9703097 654.636829,49.42877 655.198548,48.9070867 L655.169788,48.8682763 L654.790515,48.3014647 C654.662893,48.1119258 654.539764,47.8953099 654.411243,47.6416888 C653.621242,46.4836963 652.833937,45.1072827 652.071798,43.5512585 C651.273708,41.9221264 651.028349,40.1260196 651.341114,38.2134817 C651.65298,36.3198977 652.230876,34.8216378 653.061321,33.7602198 C653.897158,32.6906788 654.882188,31.9487694 655.989447,31.5552505 C657.339369,31.1021622 658.713557,31.1797829 659.972705,31.7772818 C661.289374,32.4704527 662.107236,33.4777166 662.484711,34.8640584 C662.811856,35.907425 662.754336,37.1628946 662.348999,38.4517592 C662.060501,39.3687665 661.585062,40.2415481 660.417587,41.6360129 C660.341193,41.7118285 660.291762,41.7677876 660.24233,41.8246493 C660.203684,41.8679725 660.165038,41.9112957 660.124594,41.9555214 C659.00655,43.1532268 658.055673,43.7841206 657.963101,43.8527157 L656.446911,41.4175919 C656.503532,41.3661456 657.370825,40.7217133 657.911873,40.1224093 L657.948721,40.083599 C657.980178,40.0493015 657.995456,40.0312502 658.065559,39.9455064 C659.002955,38.8949192 659.129678,38.3903847 659.359758,37.7170703 C659.631181,36.9255197 659.687802,36.2314462 659.529622,35.6538038 C659.381328,35.1095564 659.070361,34.7250632 658.577846,34.47776 C658.150041,34.2891237 657.582031,34.2656569 656.907071,34.4190932 C656.337263,34.6348065 655.803406,35.0725512 655.320777,35.7205937 C654.820174,36.392103 654.452585,37.4029772 654.226999,38.7243342 C654.005008,40.0186142 654.219809,41.2876224 654.868706,42.4970611 C655.555351,43.7850232 656.238401,44.9556516 656.900779,45.9773566 C656.908868,45.9917977 656.917856,46.0062387 656.925046,46.0215824 C657.0293,46.2318803 657.147935,46.4169064 657.278254,46.5721478 C657.339369,46.6470608 657.399585,46.7219738 657.458903,46.7986919 C660.53712,44.0864803 663.627021,41.7930595 666.650415,39.9761936 C668.288836,38.9987144 669.861647,38.1593277 671.325711,37.4815005 C671.545904,37.3921464 671.748123,37.3470181 671.945848,37.3397976 C672.210979,37.2982795 672.494984,37.3470181 672.786179,37.4860133 C673.272402,37.6466701 673.48271,37.9580555 673.573483,38.1936253 C673.789183,38.7487035 673.609433,39.484295 673.009069,40.5078051 C672.728659,41.0746167 672.30355,42.0647319 671.725654,43.5079353 C671.157644,44.9276721 670.597723,46.4999425 670.062069,48.182326 C669.642353,49.3935699 669.282853,50.6237677 668.986265,51.8503552 C668.722932,52.9433629 668.527903,53.9614577 668.405673,54.8847829 C668.413762,54.8748547 668.420952,54.865829 668.428142,54.8559008 C669.098609,53.9542371 670.081841,52.2745613 671.121694,50.4965058 C673.613028,46.240906 677.022884,40.4157434 681.386314,35.574378 C681.896804,34.9498022 686.694329,29.1796961 693.645259,24.2995204 C703.356248,17.4806324 712.422834,15.9751519 719.863582,19.9455408 C720.206905,20.1287618 720.458555,20.4356343 720.572696,20.8092967 C720.686837,21.1829591 720.649089,21.5791857 720.465745,21.923966 Z M653.844312,20.1395023 C650.247516,20.1449177 633.786916,37.2413276 625.233516,51.9721114 C633.182058,46.4303546 639.993681,40.91748 642.853503,37.6880979 C651.536323,27.8844233 654.740365,21.5962442 654.264028,20.2162204 C654.227179,20.1990717 654.128316,20.1611639 653.915313,20.14221 C653.891945,20.1404049 653.868578,20.1395023 653.844312,20.1395023 Z M620.146594,63.6413904 C619.44467,63.0041787 618.661859,61.9084632 618.607035,60.1737309 C611.525787,64.6477518 599.350426,71.7509482 592.097517,72.6526119 C590.554364,72.8439559 589.128947,72.9423357 587.862609,72.944168 C584.191216,72.9495562 581.660338,72.1453697 580.340973,70.5532428 C579.181586,69.1533625 579.27236,67.5052766 579.50963,66.7525363 C579.636353,66.3508943 579.910472,66.0232628 580.281656,65.829211 C580.653738,65.6342567 581.078847,65.5981541 581.47879,65.7245134 C582.290361,65.9817447 582.75142,66.857234 582.509656,67.674959 C582.508757,67.681277 582.397312,68.1271447 582.77299,68.5612791 C583.259213,69.1244804 585.104346,70.3456526 591.712852,69.5252198 C597.125122,68.852808 607.34031,63.8074626 619.749346,55.6780484 C622.850032,49.0089864 629.523248,39.3163274 636.791436,30.9369024 C640.538324,26.6172203 649.724443,16.6149811 654.189431,17.0030846 C656.154098,17.1763773 656.90006,18.3461032 657.170584,19.0284432 C657.696352,20.3579233 657.809595,22.6378057 653.984517,28.5180248 C651.860771,31.7817044 648.741211,35.7827806 645.19834,39.7829542 C641.507176,43.9501026 632.288701,51.1940993 622.230794,57.8315715 C621.761647,59.0211538 621.412033,60.5428805 622.251465,61.3037439 C623.791922,62.7036241 628.345886,62.0835611 632.193433,59.950797 C639.051792,56.149188 650.480292,46.1162616 650.96292,45.7019836 L652.591455,48.5405545 C652.102535,48.9620529 640.913102,58.7160864 633.710523,62.7090395 C627.762598,66.0052115 622.38448,65.6730671 620.146594,63.6413904 Z M609.382539,57.7516041 C608.473903,58.2389899 607.537406,58.6650012 606.596415,59.0837919 C605.286937,54.7623047 604.557152,50.1565091 604.557152,45.6355548 C604.557152,20.4720077 624.942591,1.13686838e-13 649.99973,1.13686838e-13 C666.14397,1.13686838e-13 681.228583,9.02927277 689.397318,22.9657983 C688.55519,23.5443432 687.708568,24.1806524 686.917668,24.8819464 C679.353792,11.6999663 665.164333,3.15085878 649.99973,3.15085878 C626.672684,3.15085878 607.694687,22.2094477 607.694687,45.6355548 C607.694687,49.8351955 608.251912,53.7803126 609.440059,57.7245271 C609.421185,57.7335528 609.401413,57.7416759 609.382539,57.7516041 Z M690.988824,35.093581 C691.806686,34.2857842 692.656005,33.5122849 693.527792,32.7586421 C694.83727,37.0205599 695.443027,41.0739849 695.443027,45.6355548 C695.443027,70.8000044 675.05669,91.2720121 650.000449,91.2720121 C633.869691,91.2720121 619.198503,83.0135309 611.045046,69.1356722 C612.000417,68.7313226 612.92523,68.2764292 613.800612,67.708715 C621.413022,80.5260583 635.047952,88.1211533 650.000449,88.1211533 C673.327496,88.1211533 692.305492,69.0616618 692.305492,45.6355548 C692.305492,41.9927974 691.884878,38.547702 690.988824,35.093581 Z" id="Fill-20"></path>
            </g>
        </g>
    </g>
</svg>