<?xml version="1.0" encoding="UTF-8"?>
<svg width="177px" height="76px" viewBox="0 0 177 76" version="1.1" xmlns="http://www.w3.org/2000/svg" xmlns:xlink="http://www.w3.org/1999/xlink">
    <!-- Generator: Sketch 56.2 (81672) - https://sketch.com -->
    <title>Fill 8</title>
    <desc>Created with Sketch.</desc>
    <g id="A---Homepage" stroke="none" stroke-width="1" fill="none" fill-rule="evenodd">
        <g id="B.1.0---Project-Page" transform="translate(-171.000000, -1062.000000)" fill="#B4B3B1">
            <g id="logos" transform="translate(171.000000, 1023.000000)">
                <path d="M108.576739,54.3360125 C107.693206,55.4523954 106.747211,56.5805774 105.756858,57.6969602 C104.502169,59.1409968 103.202217,60.4833791 101.895024,61.6887095 C100.601409,62.8786102 99.3521518,63.8815395 98.1526839,64.6884211 C97.5769393,65.1095606 96.9441634,65.4980255 96.2724614,65.8438319 C95.6333487,66.173301 95.0440252,66.3902242 94.5207857,66.4864328 C94.0980298,66.5653964 93.7549367,66.5354447 93.4697802,66.3983928 C93.4036963,66.3675335 93.2054446,66.2713249 93.1393608,65.7176716 C92.9981404,64.6457625 93.08414,63.5021509 93.3937385,62.3158807 C93.7160106,61.0833214 94.1740715,59.8444088 94.7534372,58.6354479 C95.3382343,57.4201335 96.0407152,56.2266023 96.8427744,55.0884364 C97.6538863,53.9366561 98.4695245,52.92102 99.3005521,52.0342671 C100.30901,50.838013 101.403468,49.8214693 102.554957,49.0127725 C103.675668,48.2258587 104.807241,47.65133 105.919804,47.3037084 C106.42856,47.1993311 106.924642,47.2419896 107.438829,47.4353145 C108.049878,47.6649444 108.636486,47.9807991 109.187789,48.3774327 C110.160036,49.0663225 110.724918,49.8387142 110.913212,50.7408968 C110.932222,50.8262138 110.963906,50.908808 111.007359,50.9841412 C111.010074,51.0086471 111.011885,51.043137 111.01279,51.0894261 C110.220689,52.2049013 109.40143,53.2967781 108.576739,54.3360125 M104.636147,76.0310521 C104.033245,77.6520763 103.35068,79.3992608 102.602936,81.23267 C102.167507,82.336346 101.735698,83.408255 101.3057,84.4620115 C99.3096046,84.7597136 97.3732561,85.1245802 95.5057072,85.5602418 C95.7238746,85.2879533 95.9402314,85.0156648 96.1611146,84.7460992 C99.0226376,81.2571759 102.106854,77.7074416 105.306944,74.2139802 C105.074293,74.8475048 104.850694,75.4528929 104.636147,76.0310521 M96.334019,95.8373172 C94.354218,100.002423 92.5228795,103.327974 90.869877,105.751341 C89.865945,107.366012 88.858392,108.584957 87.8752809,109.371871 C86.9320013,110.128833 86.1055,110.575386 85.4328927,110.697008 C85.1939044,110.736036 84.9866001,110.706992 84.7928747,110.602615 C84.5891915,110.453764 84.3293822,110.18329 84.2632984,109.56338 C84.2578668,109.515276 84.2488142,109.468079 84.2343301,109.42179 C83.8930475,108.244596 84.0234048,106.487428 84.6208756,104.201112 C85.2382621,101.846724 86.5255401,99.0040323 88.4464992,95.7520001 C89.5997989,93.7960611 90.8508665,91.864628 92.1861233,89.9695001 C94.7054585,89.1952932 97.2546672,88.6026119 99.7685708,88.1569664 C98.5917344,90.9288632 97.4420558,93.5019895 96.334019,95.8373172 M64.7332453,83.2376209 C63.9474807,84.4883327 63.084769,85.5411816 62.174984,86.3616776 C61.4525875,87.0015555 60.6595808,87.4090806 59.754322,87.606036 C58.9694626,87.7104132 57.802584,87.6232809 56.6429475,85.7889641 C56.6148845,85.7463056 56.5696216,85.6900326 56.5279797,85.6455588 C56.5125903,85.5629647 56.4863378,85.4830934 56.4474116,85.4086678 C55.7376887,84.0399643 55.9250773,82.2573823 57.0032405,80.111749 C58.1737401,77.7854976 59.9299422,75.3240097 62.2184364,72.7989877 C62.8095704,72.1491258 63.4486831,71.4874648 64.1194798,70.8339724 L65.2845479,69.6948989 C66.3002483,72.0465638 66.7239094,74.3428634 66.5446681,76.5366011 C66.3364586,79.0970206 65.7272194,81.3515693 64.7332453,83.2376209 M144.968142,51.9743637 C144.603323,55.9207316 144.305493,57.3865513 143.577665,60.0749464 C142.094851,65.5552061 141.348917,66.5663041 140.561342,67.9930958 C140.029955,68.9560894 139.281306,69.9916933 137.61563,69.5233571 C137.251716,69.4217027 137.029022,69.2220245 136.835297,68.917969 C136.415257,68.2608461 136.732098,67.2424872 137.078812,66.1133975 C137.145801,65.8982896 137.308747,65.4344916 137.528725,64.8173043 C138.184133,62.9702807 139.403516,59.5339999 139.797304,57.5689846 C140.171176,55.7038084 140.595742,53.0435498 140.684457,51.5668386 C140.765931,50.1990427 140.736962,48.9474232 140.606605,48.0443331 C140.488016,47.2365439 140.30968,46.9179663 140.217344,46.8026975 C140.209197,46.8026975 140.201955,46.8026975 140.192902,46.8026975 C139.57461,46.791806 138.82234,47.1321666 137.954197,47.8165184 C136.828055,48.7041789 135.626777,49.914955 134.382951,51.4161723 C132.68378,53.5618056 130.701264,56.2120803 128.964977,59.4958795 C125.702425,65.667752 124.34001,69.3100644 123.245552,72.2353505 C122.837281,73.3308579 122.483324,74.275699 122.08501,75.2042027 C121.407877,76.5719986 120.56327,76.8488252 119.9658,76.8388413 C119.831821,76.8370261 119.710517,76.8197811 119.607317,76.797998 C119.066878,76.6945284 118.689385,76.4821434 118.320944,76.0664496 C117.862883,75.5509167 117.889136,74.8302599 117.906336,74.3528474 C117.908146,74.3310643 117.909052,74.3083736 117.911767,74.2856829 C118.017683,73.4007453 118.945573,69.8201516 120.059041,65.5815273 C120.397608,64.288157 120.690007,63.1763123 120.849332,62.5364343 C121.21053,61.0887672 121.622423,59.555783 122.071432,57.9719716 C121.578066,58.3804043 121.0675,58.8124354 120.537923,59.26988 C118.288355,61.2149275 115.6106,63.7354113 112.578888,66.7650747 C111.544177,69.8001837 110.553824,72.5838798 109.633176,75.0408296 C108.688991,77.5558677 107.676006,80.1407931 106.622285,82.7239033 C106.469296,83.1150911 106.318118,83.4972026 106.166035,83.8829446 C108.28434,83.6950656 110.458772,83.5752587 112.695666,83.5335077 C125.410931,83.3002473 135.438483,85.4685713 135.859428,85.5611494 C136.791845,85.767181 137.378452,86.6720865 137.166622,87.5778995 C136.954791,88.4828049 136.022375,89.0518879 135.089958,88.8458563 C134.991285,88.8249808 125.053354,86.6884238 112.625961,86.9398368 C110.169994,86.990664 107.505818,87.1404227 104.735726,87.4462934 C103.203123,91.1929831 101.701298,94.6328944 100.257411,97.6979552 C98.2595045,101.932949 96.4091555,105.325664 94.7543424,107.786244 C94.7335215,107.891529 94.6900691,107.992276 94.6294167,108.083038 C91.8104409,112.256313 89.0430647,114.489079 86.1706786,114.909311 C85.7913752,114.975568 85.4193138,115.00552 85.0563051,114.999166 C83.9763313,114.981014 82.9778309,114.640653 82.0852457,113.980807 C80.9989352,113.107669 80.2828755,111.949535 79.9298245,110.519113 C79.5143108,108.691149 79.6419522,106.3295 80.3055069,103.484086 C80.960009,100.676791 82.422002,97.3476107 84.6516544,93.5891218 C84.8381377,93.2778053 85.0400104,92.971027 85.23102,92.6606181 C81.7276685,94.3397304 78.4243792,96.4826409 75.5347931,99.2082487 C75.2016579,99.5231957 74.7607969,99.6929222 74.2945886,99.6847536 C73.8338119,99.6765849 73.4029087,99.4959669 73.0806366,99.1746665 C72.7583644,98.8515508 72.5836495,98.4267807 72.5899863,97.9765971 C72.5963231,97.5273211 72.7828064,97.1061815 73.1159417,96.7930498 C77.2511638,92.8920633 82.4518755,89.8251872 88.5406461,87.6178352 C89.8523661,85.7562895 91.2356015,83.9292337 92.6822051,82.1530051 C95.6433066,78.5179537 98.8343438,74.873826 102.167507,71.3222764 C103.274638,70.0969782 104.408927,68.8753105 105.533259,67.7017471 C106.581548,66.608055 107.629838,65.5452222 108.65097,64.5450158 L110.48593,59.0275433 C110.047784,59.5258312 109.591534,60.0077819 109.120799,60.468857 C106.282813,63.687307 103.437585,66.2722325 100.665682,68.1528383 C99.0805742,69.2383618 97.5751288,69.9916933 96.1946092,70.3901421 C94.735332,70.8130969 93.3683912,70.7767918 92.1281867,70.2839496 C91.3550957,70.0815485 90.6580464,69.5941521 90.0578598,68.8371901 C89.4920731,68.1256095 89.1109592,67.4085831 88.9262864,66.7060788 C88.8330447,66.3847784 88.760624,66.0562169 88.7054032,65.7231174 C88.5868143,65.9191651 88.4600781,66.1233814 88.347826,66.3139834 C87.3782938,67.9549754 86.5662767,69.430779 85.9353113,70.7032739 C85.2608935,72.0574554 84.6634227,73.0939669 84.1057833,73.872712 C83.3182082,74.9001472 82.547833,75.5817761 81.7331,75.9802249 C81.1148083,76.2824652 80.5146217,76.4295009 79.9406876,76.419517 C79.7026046,76.4149789 79.4672373,76.3841195 79.2373016,76.3260313 C78.4171371,76.1145539 77.7680666,75.559993 77.3081951,74.675963 C76.8899655,73.8681738 76.7261137,72.8570759 76.8084922,71.5836734 L76.8057765,71.5274004 C76.8057765,71.4965411 76.807587,71.4656817 76.811208,71.4348223 C76.9632915,70.0751951 77.2538796,68.5621787 77.6748249,66.937524 C78.0885282,65.3491745 78.5701258,63.7426724 79.1042285,62.1633991 C79.5505211,60.7538523 80.0230662,59.3996709 80.5119059,58.1090234 C80.3435278,58.2025092 80.1778655,58.2923644 80.0076768,58.3876653 C78.0867177,59.5430762 76.0743274,60.879105 74.0474529,62.3449248 C72.200725,63.6818613 70.3983548,65.0950386 68.6792683,66.5499667 C70.3693865,69.9390509 71.1171303,73.2773078 70.9025839,76.483051 C70.678985,79.8367376 69.8859783,82.7874373 68.5471006,85.254371 C67.506053,86.9779572 66.3826268,88.3865963 65.1885905,89.4775656 C63.6704715,90.7155706 62.1089001,91.45438 60.5120236,91.7039778 C60.0114155,91.7920178 59.5153337,91.8319534 59.0273992,91.8228771 C58.110372,91.8074475 57.2214079,91.6231989 56.3740857,91.2701315 C55.0650815,90.7228316 53.8891503,89.6246014 52.8797867,88.0035772 C52.8680184,87.984517 52.85625,87.9663644 52.8462922,87.9463966 L52.5022938,87.2820127 C51.310068,84.8241552 51.4340885,82.0313829 52.8607763,78.9608763 C54.2141382,76.0473894 56.2690756,73.0431397 58.9658416,70.031629 C59.6502172,69.2147635 60.4169714,68.3897293 61.2253675,67.6000927 C61.8527118,66.9874436 62.4918245,66.3847784 63.1318425,65.8048039 L62.766118,65.2774719 C62.6004556,65.0387656 62.4402248,64.7719229 62.2781835,64.4624216 C61.2787778,63.050152 60.2829931,61.3746701 59.3188925,59.4804498 C58.2832764,57.4464548 57.9619096,55.2055205 58.362034,52.8211809 C58.7585373,50.4704235 59.5017548,48.6043397 60.5744864,47.2746643 C61.6589865,45.9295591 62.9417382,44.9937943 64.3865312,44.4945987 C66.2124382,43.8991946 67.9288088,44.0180939 69.5048644,44.843128 C71.2610664,45.5356484 72.4207029,46.8335569 72.9511846,48.6996407 C73.3811825,50.0147941 73.3277722,51.5468707 72.7855222,53.2232602 C72.2577563,54.8569912 71.1008356,56.5932842 69.3464441,58.3849424 C69.342823,58.3894806 69.3373915,58.3940187 69.3337704,58.3985569 C68.4113117,59.2998318 67.2860751,59.3697192 66.2450275,58.5882512 C66.201575,58.5555766 66.1617437,58.5192714 66.1255333,58.4793358 C65.3126109,57.5853219 65.2972215,56.5070595 66.0838914,55.5204675 C66.1001861,55.5004997 66.1182912,55.4796242 66.1363964,55.460564 C67.334959,54.2207437 68.1134816,53.1079914 68.4502379,52.1531664 C68.7679837,51.2491686 68.8367834,50.4640702 68.6539211,49.8214693 C68.4882587,49.2387719 68.156934,48.8448612 67.6119682,48.581649 C67.1511915,48.3874166 66.5084578,48.3647259 65.7371773,48.5326371 C65.0826752,48.7786044 64.4652887,49.2750771 63.9022177,50.0093484 C63.3038417,50.7890011 62.8620754,51.973456 62.5895925,53.5327615 C62.3216359,55.0584847 62.5769189,56.493445 63.3708308,57.9229596 C64.2344477,59.4795422 65.0908225,60.8918118 65.918229,62.1234635 C65.9363342,62.1497847 65.9526289,62.1770135 65.967113,62.20515 C66.089323,62.4411334 66.226017,62.6462574 66.372669,62.8159839 C66.3844373,62.8286907 66.3943952,62.8413975 66.4061635,62.8541043 C70.2028189,59.6320237 74.0139584,56.8991549 77.7454351,54.7235698 C79.6754468,53.607187 81.5285116,52.645101 83.2693242,51.8454804 C83.4449444,51.5069351 83.6803117,51.1375304 83.9826681,50.7245595 C84.5928126,49.8895414 85.5288501,49.6553733 86.4947613,50.0919425 C87.2062947,50.3224801 87.5186089,50.7735714 87.6562083,51.1157473 C87.963091,51.8754322 87.7367763,52.842964 86.9473907,54.1581174 C86.5852871,54.8687904 86.0466582,56.0913657 85.3450826,57.7904459 C84.6380755,59.5058634 83.940121,61.40916 83.27204,63.4495084 C82.7515162,64.9135129 82.3025078,66.3993004 81.9313517,67.8869033 C81.701416,68.822668 81.5131222,69.7148667 81.3682808,70.5526076 C81.8915203,69.919083 82.422002,69.1058481 82.9488626,68.1228866 C83.7065642,66.7142475 84.5611285,65.1558497 85.510745,63.4486008 C86.4621719,61.7340909 87.6227137,59.8625613 88.9579704,57.8866545 C90.2995639,55.9007637 91.9172614,53.9012586 93.7657998,51.9435043 C93.7712314,51.9380585 93.7748524,51.9353356 93.7793787,51.9298899 C94.5035857,50.9687115 95.2151192,50.0864968 95.9058316,49.299583 C97.2428988,47.8392091 98.6677762,46.5648989 100.149685,45.4966204 C101.669614,44.4029283 103.184112,43.644151 104.651537,43.2420717 C105.372123,43.0659918 105.874541,42.9861205 106.255655,42.9843052 C107.266829,42.9815823 108.28253,43.1649233 109.258399,43.5316051 C110.213447,43.8919335 111.116895,44.3983901 111.946112,45.0355452 C112.663077,45.6291341 113.270506,46.2390604 113.768398,46.8653239 C114.253617,46.0257677 114.647404,45.2588218 114.945234,44.5771929 C114.969676,44.5254581 114.985066,44.496414 114.995024,44.4755385 C115.029423,44.117933 115.264791,43.8456445 115.470284,43.644151 C116.060513,43.0687147 116.799204,42.8499762 117.548759,43.0305943 C117.999578,43.1376944 118.539112,43.3128667 118.83151,43.7167613 C119.097656,44.0117405 119.237972,44.3793299 119.238877,44.7850398 C119.240687,45.0809266 119.16374,45.5193111 118.990836,46.2072934 C118.387934,48.5725727 117.642906,51.1475143 116.772952,53.8595077 C116.288638,55.3707088 115.82062,56.818376 115.370706,58.2016015 C116.747605,56.9390905 117.956125,55.870812 118.984499,55.0121956 C120.605818,53.653476 122.138421,52.5398161 123.540667,51.7029828 C123.582308,51.6775692 123.626666,51.6557861 123.672834,51.6376336 C123.739824,51.6113123 123.824013,51.5922521 123.896433,51.5677462 C124.087443,50.9042699 124.276642,50.2407936 124.472178,49.575502 C125.017144,47.7157716 125.571162,45.9331896 126.117938,44.2776756 C126.3352,43.6232756 126.38499,43.4789627 126.393137,43.4553643 L126.404905,43.4589948 C126.406716,43.4535491 126.408526,43.4471957 126.409432,43.4417499 L126.398569,43.4381194 C126.405811,43.4172439 126.414863,43.3963685 126.424821,43.375493 C126.458316,43.233903 126.503579,43.0932206 126.546126,42.9588916 C126.925429,41.7671757 127.19067,40.9466797 127.342753,40.4992189 C127.350901,40.4765282 127.359953,40.4529299 127.370817,40.4293315 C127.909445,39.2185553 128.94144,38.7465886 130.204277,39.1305154 C130.224192,39.1368688 130.245013,39.1441298 130.264929,39.1522985 C131.019915,39.4445548 131.225408,39.9682563 131.346713,40.2804805 C131.536817,40.7669693 131.558544,41.3306064 131.40646,41.8670148 C131.331324,42.1347651 131.200061,42.5186919 131.028967,43.0233332 C130.906757,43.3800312 130.764632,43.8002631 130.604401,44.2849366 C130.510254,44.5699319 130.473138,44.6833854 130.46137,44.7251363 L130.459559,44.7251363 C130.415202,44.9565815 130.331918,45.2279624 130.235055,45.5447247 C129.744405,47.1348895 129.21845,48.8702748 128.654473,50.7545112 C128.454411,51.4207104 128.25616,52.0968935 128.057908,52.77943 C129.019293,51.3426544 129.98973,50.0193323 130.962883,48.8221705 C132.59597,46.7718382 134.265267,45.143553 135.92008,43.9872345 C137.694388,42.7501371 139.477748,42.3199213 141.226707,42.7092938 C141.49919,42.7274464 141.708305,42.8100406 141.862199,42.9053416 C143.223708,43.3945532 144.140736,44.528181 144.587933,46.2753655 C144.989868,47.8510082 145.165488,49.8496058 144.968142,51.9743637 Z M0,47.6933532 L4.98707065,47.6933532 L4.98707065,74.9684916 L13.1941468,74.9684916 L13.1941468,79.5138942 L0,79.5138942 L0,47.6933532 Z M16.8211567,79.5140758 L16.8211567,47.6935347 L30.4226699,47.6935347 L30.4226699,52.2389373 L21.8091326,52.2389373 L21.8091326,61.1037431 L28.6546995,61.1037431 L28.6546995,65.6500533 L21.8091326,65.6500533 L21.8091326,74.9686732 L30.4226699,74.9686732 L30.4226699,79.5140758 L16.8211567,79.5140758 Z M33.5074298,52.2393911 L33.5074298,47.6939885 L48.9221764,47.6939885 L48.9221764,52.2393911 L43.708791,52.2393911 L43.708791,79.5145296 L38.7208151,79.5145296 L38.7208151,52.2393911 L33.5074298,52.2393911 Z M152.97063,79.5142573 L152.97063,47.6937162 L157.9577,47.6937162 L157.9577,79.5142573 L152.97063,79.5142573 Z M161.584348,47.6933532 L177,47.6933532 L177,52.2387558 L171.785709,52.2387558 L171.785709,79.5138942 L166.798639,79.5138942 L166.798639,52.2387558 L161.584348,52.2387558 L161.584348,47.6933532 Z M87.2033073,47.7916493 C86.1595439,47.2343656 85.7557985,46.2731872 86.0979863,45.1540815 L86.2183858,44.7973835 C86.2355857,44.7492792 86.2555014,44.7020826 86.2799434,44.6576088 C86.9507401,43.4586318 88.048819,43.0719821 89.2220344,43.619282 C90.4006813,44.0894335 90.8324898,45.1023467 90.3771446,46.3339983 C90.3527026,46.3984399 90.3219238,46.459251 90.2829977,46.5155239 L90.1010407,46.7823667 C89.794158,47.4612726 89.3143708,47.7616976 88.9576988,47.8933037 C88.7123737,47.9831589 88.4570907,48.0258174 88.1936604,48.0212793 C87.9039776,48.0167412 87.6052422,47.9541148 87.2983595,47.8352155 C87.2657702,47.8225087 87.2340861,47.8079867 87.2033073,47.7916493 Z" id="Fill-8"></path>
            </g>
        </g>
    </g>
</svg>