<?xml version="1.0" encoding="UTF-8"?>
<svg width="298px" height="547px" viewBox="0 0 298 547" version="1.1" xmlns="http://www.w3.org/2000/svg" xmlns:xlink="http://www.w3.org/1999/xlink">
    <title>mobile</title>
    <defs>
        <filter x="-16.2%" y="-8.0%" width="132.5%" height="116.2%" filterUnits="objectBoundingBox" id="filter-1">
            <feOffset dx="0" dy="5" in="SourceAlpha" result="shadowOffsetOuter1"></feOffset>
            <feGaussianBlur stdDeviation="7.5" in="shadowOffsetOuter1" result="shadowBlurOuter1"></feGaussianBlur>
            <feColorMatrix values="0 0 0 0 0   0 0 0 0 0   0 0 0 0 0  0 0 0 0.15 0" type="matrix" in="shadowBlurOuter1" result="shadowMatrixOuter1"></feColorMatrix>
            <feMerge>
                <feMergeNode in="shadowMatrixOuter1"></feMergeNode>
                <feMergeNode in="SourceGraphic"></feMergeNode>
            </feMerge>
        </filter>
        <linearGradient x1="50%" y1="0%" x2="50%" y2="100%" id="linearGradient-2">
            <stop stop-color="#454545" offset="0%"></stop>
            <stop stop-color="#999999" offset="22.6279115%"></stop>
            <stop stop-color="#FFFFFF" offset="100%"></stop>
        </linearGradient>
        <linearGradient x1="50%" y1="0%" x2="50%" y2="100%" id="linearGradient-3">
            <stop stop-color="#454545" offset="0%"></stop>
            <stop stop-color="#999999" offset="22.6279115%"></stop>
            <stop stop-color="#FFFFFF" offset="100%"></stop>
        </linearGradient>
        <linearGradient x1="50%" y1="26.9114283%" x2="50%" y2="-43.6051491%" id="linearGradient-4">
            <stop stop-color="#FFFFFF" stop-opacity="0" offset="0%"></stop>
            <stop stop-color="#FFFFFF" stop-opacity="0.55" offset="100%"></stop>
        </linearGradient>
        <linearGradient x1="100%" y1="50%" x2="30.0573656%" y2="50%" id="linearGradient-5">
            <stop stop-color="#000000" offset="0%"></stop>
            <stop stop-color="#BABABA" offset="22.2177934%"></stop>
            <stop stop-color="#000108" offset="54.6780492%"></stop>
            <stop stop-color="#060606" offset="100%"></stop>
        </linearGradient>
        <path d="M44.5902054,0 L17.7287991,0 C7.4728522,0 0,7.57180155 0,17.461035 L0,440.325885 C0,453.220347 11.546919,464.645151 24.6035769,464.645151 L190.233231,464.645151 C202.810423,464.645151 214.836808,453.131605 214.836808,440.325885 L214.836808,18.6040735 C214.836808,6.7511206 206.718886,0.0704868755 197.108009,0 L169.158738,0 C168.89421,0.0469912503 167.99501,0.0704868755 167.606934,0.0704868755 C165.010893,0.0704868755 164.180093,2.32402945 164.180093,7.57180155 C164.180093,12.8195737 158.075133,17.2542373 153.610175,17.2542373 L135.463603,17.2542373 L68.2751442,17.2542373 L60.4877509,17.2542373 C58.3653445,17.2542373 50.5809083,14.8109437 49.9484389,7.57180155 C49.3159695,0.332659404 49.2260656,0.0704868755 45.5691105,0.0704868755 C45.1810351,0.0704868755 44.8547334,0.0469912503 44.5902054,0 Z" id="path-6"></path>
        <linearGradient x1="100%" y1="50%" x2="0%" y2="50%" id="linearGradient-8">
            <stop stop-color="#FFFFFF" stop-opacity="0" offset="0%"></stop>
            <stop stop-color="#FFFFFF" stop-opacity="0.55" offset="100%"></stop>
        </linearGradient>
        <linearGradient x1="100%" y1="50%" x2="0%" y2="50%" id="linearGradient-9">
            <stop stop-color="#FFFFFF" stop-opacity="0" offset="0%"></stop>
            <stop stop-color="#FFFFFF" stop-opacity="0.55" offset="100%"></stop>
        </linearGradient>
    </defs>
    <g id="A---Homepage" stroke="none" stroke-width="1" fill="none" fill-rule="evenodd">
        <g id="C.1.1---Project-Page" transform="translate(-834.000000, -2021.000000)">
            <g id="mobile" filter="url(#filter-1)" transform="translate(863.000000, 2050.000000)">
                <g id="phone" transform="translate(0.819878, 0.079681)">
                    <path d="M31.0271215,0.572223092 L207.492484,0.572223092 C224.416525,0.572223092 238.13617,14.4516903 238.13617,31.5728807 L238.13617,455.961194 C238.13617,473.082384 224.416525,486.961851 207.492484,486.961851 L31.0271215,486.961851 C14.1030812,486.961851 0.383435773,473.082384 0.383435773,455.961194 L0.383435773,31.5728807 C0.383435773,14.4516903 14.1030812,0.572223092 31.0271215,0.572223092 Z" id="body" fill="#000105"></path>
                    <g id="frame" transform="translate(0.383436, 0.000000)">
                        <path d="M207.883354,0 L29.8693807,0 C21.5583801,0.53526901 13.8935125,4.54083065 6.87477786,12.0166849 C11.3886218,7.85504663 19.4395233,2.28610994 30.0836153,2.28610994 C143.743243,2.28610994 202.938411,2.28610994 207.669119,2.28610994 C218.313211,2.28610994 226.364112,7.85504663 230.877956,12.0166849 C223.859222,4.54083065 216.194354,0.53526901 207.883354,0 Z" id="reflect-frame-top" fill-opacity="0.649999976" fill="url(#linearGradient-2)" opacity="0.595561594"></path>
                        <path d="M207.883354,476.15164 L29.8693807,476.15164 C21.2226877,476.527162 13.7677385,479.776931 7.91958968,486.319777 C12.4334336,482.554485 19.4395233,478.220026 30.0836153,478.220026 C143.743243,478.220026 202.938411,478.220026 207.669119,478.220026 C218.313211,478.220026 225.953741,483.196559 230.467585,486.961851 C224.358722,479.929486 216.736212,476.505089 207.883354,476.15164 Z" id="reflect-frame-bottom-2" fill-opacity="0.649999976" fill="url(#linearGradient-3)" opacity="0.6953125" transform="translate(119.193587, 481.556746) scale(1, -1) translate(-119.193587, -481.556746) "></path>
                        <path d="M207.292627,477.394119 C215.558746,477.394119 223.065697,480.644503 228.605095,485.936884 C223.551861,482.324902 217.363646,480.199242 210.678956,480.199242 L210.678956,480.199242 L29.0597469,480.199242 C21.4541588,480.199242 14.4912584,482.950915 9.11228267,487.513026 C14.7576655,481.29721 22.9041821,477.394119 31.9623143,477.394119 L207.292627,477.394119 Z" id="reflect-frame-bottom" fill="url(#linearGradient-4)" opacity="0.602468297" transform="translate(118.861170, 482.458374) scale(1, -1) translate(-118.861170, -482.458374) "></path>
                        <path d="M233.040816,451.135583 L233.040816,34.1095988 C233.040816,22.9204333 229.147344,18.7841127 226.824684,16.1280887 C224.502025,13.4720648 224.403166,12.1173734 227.740428,14.122731 C231.07769,16.1280887 237.752734,21.968803 237.752734,34.1095988 L237.752734,451.135583 C237.752734,463.276379 231.07769,469.117093 227.740428,471.122451 C224.403166,473.127808 224.502025,471.773117 226.824684,469.117093 C229.147344,466.461069 233.040816,462.324749 233.040816,451.135583 Z" id="reflect-frame-right" fill="url(#linearGradient-5)" opacity="0.650000036"></path>
                        <path d="M7.89184102,451.135583 L7.89184102,34.1095988 C7.89184102,22.9204333 3.9983687,18.7841127 1.67570929,16.1280887 C-0.646950131,13.4720648 -0.745808842,12.1173734 2.59145314,14.122731 C5.92871513,16.1280887 12.6037594,21.968803 12.6037594,34.1095988 L12.6037594,451.135583 C12.6037594,463.276379 5.92871513,469.117093 2.59145314,471.122451 C-0.745808842,473.127808 -0.646950131,471.773117 1.67570929,469.117093 C3.9983687,466.461069 7.89184102,462.324749 7.89184102,451.135583 Z" id="reflect-frame-left" fill="url(#linearGradient-5)" opacity="0.650000036" transform="translate(6.301880, 242.622591) scale(-1, 1) translate(-6.301880, -242.622591) "></path>
                    </g>
                </g>
                <g id="Screen" transform="translate(12.661277, 11.524143)">
                    <mask id="mask-7" fill="white">
                        <use xlink:href="#path-6"></use>
                    </mask>
                    <use id="Screen-Mask" fill="#FFFFFF" xlink:href="#path-6"></use>
                </g>
                <g id="screen-reflect" transform="translate(12.088379, 12.096366)" opacity="0.300000012">
                    <g id="Group" transform="translate(0.572898, 0.000000)">
                        <path d="M207.351751,447.052195 L207.351751,11.2171263 C207.351751,7.15563868 205.414759,3.1872119 201.66015,0 C204.554013,1.11627154 206.423913,1.23699762 208.42518,3.26260997 C212.379973,7.26574543 214.836808,12.4117333 214.836808,16.6921149 L214.836808,439.860537 C214.836808,445.15436 212.309119,450.042006 209.364344,453.923232 C207.363661,456.560141 204.521236,458.935098 202.042549,460.149791 C205.618127,457.315189 207.351751,451.113683 207.351751,447.052195 Z" id="reflect-glass-right" fill="url(#linearGradient-8)"></path>
                        <path d="M7.48505749,446.476418 C7.48505749,450.537906 9.02034858,457.246863 12.5959268,460.081465 C10.1172392,458.866772 8.41289506,457.041549 6.41162764,455.016083 C2.45683483,451.012948 0,445.281958 0,441.001429 L0,16.1163376 C0,11.835956 2.45683483,6.68996815 6.41162764,2.68683269 C8.41289506,0.661220348 10.2827946,1.11627154 13.1766576,0 C9.42204866,3.1872119 7.48505749,6.5798614 7.48505749,10.641349 L7.48505749,446.476418 Z" id="reflect-glass-left" fill="url(#linearGradient-9)"></path>
                    </g>
                </g>
            </g>
        </g>
    </g>
</svg>